<?xml version="1.0" encoding="iso-8859-1"?>
<!-- Generator: Adobe Illustrator 19.0.0, SVG Export Plug-In . SVG Version: 6.00 Build 0)  -->
<svg version="1.1" id="Capa_1" xmlns="http://www.w3.org/2000/svg" xmlns:xlink="http://www.w3.org/1999/xlink" x="0px" y="0px"
	 viewBox="0 0 512 512" style="enable-background:new 0 0 512 512;" xml:space="preserve">
<g>
	<path style="fill:#C9CACA;" d="M368.29,180.797h-22.548c-5.058,0-9.244-3.813-9.833-8.715l-21.152-91.492H208.612
		c-4.268,0-7.726-3.458-7.726-7.726s3.458-7.726,7.726-7.726h112.29c3.596,0,6.718,2.482,7.529,5.986l21.783,94.221h18.077
		c4.268,0,7.726,3.458,7.726,7.726C376.016,177.338,372.558,180.797,368.29,180.797z M351.292,170.884c0,0.003,0,0.006,0,0.009
		C351.292,170.891,351.292,170.887,351.292,170.884z"/>
	<path style="fill:#C9CACA;" d="M320.896,81.148c-1.71,0-3.433-0.566-4.865-1.728c-3.313-2.689-3.819-7.555-1.13-10.868
		c0.06-0.073,6.009-7.402,12.03-14.636c3.557-4.274,6.452-7.69,8.603-10.151c4.314-4.94,6.284-7.194,10.207-7.194h22.548
		c4.268,0,7.726,3.458,7.726,7.726s-3.458,7.726-7.726,7.726h-19.437c-3.97,4.4-13.526,15.886-21.952,26.268
		C325.373,80.173,323.145,81.148,320.896,81.148z"/>
</g>
<path style="fill:#DFDE48;" d="M208.54,0H50.036c-6.871,0-12.434,5.563-12.434,12.434v70.938c0,6.871,5.563,12.434,12.434,12.434
	h57.803h46.08h54.62c6.871,0,12.434-5.563,12.434-12.434V12.434C220.974,5.563,215.411,0,208.54,0z"/>
<path style="fill:#C5D65C;" d="M205.428,65.932h-46.08h-13.209c-31.496,0-57.029-25.533-57.029-57.029V0H50.036
	c-6.867,0-12.434,5.567-12.434,12.434v70.938c0,6.867,5.567,12.434,12.434,12.434h57.803h46.08h54.62
	c6.867,0,12.434-5.567,12.434-12.434V65.932H205.428z"/>
<path style="fill:#F0CEAC;" d="M254.97,355.412v79.324H142.649h-0.999v-79.324v-0.041h-1.638c-17.771,0-32.173-14.402-32.173-32.173
	v-40.167l-59.472-40.074c-10.601-7.139-13.238-21.685-5.656-32.111c7.222-9.931,21.232-12.012,31.41-5.151l33.718,22.715v-13.217
	V85.361c0-6.367,2.575-12.115,6.748-16.287c4.162-4.172,9.921-6.748,16.277-6.748c12.723,0,23.035,10.312,23.035,23.035
	l0.134,78.283c1.216-11.569,11.002-20.583,22.901-20.583c12.712,0,23.025,10.312,23.025,23.025v20.542h0.144v-20.542
	c0-12.712,10.312-23.025,23.035-23.025c12.712,0,23.025,10.312,23.025,23.025v20.542h0.144V166.23
	c0-12.795,10.374-23.169,23.179-23.169c12.795,0,23.169,10.374,23.169,23.169l-0.412,156.969c0,17.771-14.402,32.173-32.173,32.173
	h-5.099L254.97,355.412L254.97,355.412z"/>
<path id="SVGCleanerId_0" style="fill:#EABD97;" d="M215.763,355.356h-53.355c-17.498-0.315-31.583-14.584-31.583-32.157v-40.167
	l-59.472-40.074c-10.601-7.139-13.238-21.685-5.656-32.111c1.877-2.581,4.218-4.618,6.825-6.12
	c-10.003-5.642-22.959-3.302-29.81,6.12c-7.582,10.425-4.945,24.972,5.656,32.111l59.472,40.074v40.167
	c0,17.769,14.404,32.173,32.173,32.173h1.638v0.041v79.324h0.999h21.986v-41.382c0-12.705,10.3-23.004,23.004-23.004h28.438
	c4.218,0,7.621-3.482,7.494-7.728C223.447,358.519,219.867,355.356,215.763,355.356z"/>
<path id="SVGCleanerId_1" style="fill:#EABD97;" d="M110.281,187.795c11.345,0,20.543-9.197,20.543-20.543V85.361
	c0-6.367,2.575-12.115,6.748-16.287c1.422-1.425,3.033-2.658,4.787-3.672c-3.384-1.953-7.307-3.076-11.495-3.076
	c-6.356,0-12.115,2.575-16.277,6.748c-4.172,4.172-6.748,9.921-6.748,16.287v102.434H110.281z"/>
<path id="SVGCleanerId_2" style="fill:#7CA1D8;" d="M274.543,425.434V512H126.197v-86.566c0-9.086,7.366-16.452,16.452-16.452
	H254.97h3.121C267.177,408.982,274.543,416.348,274.543,425.434z"/>
<g>
	<path id="SVGCleanerId_0_1_" style="fill:#EABD97;" d="M215.763,355.356h-53.355c-17.498-0.315-31.583-14.584-31.583-32.157
		v-40.167l-59.472-40.074c-10.601-7.139-13.238-21.685-5.656-32.111c1.877-2.581,4.218-4.618,6.825-6.12
		c-10.003-5.642-22.959-3.302-29.81,6.12c-7.582,10.425-4.945,24.972,5.656,32.111l59.472,40.074v40.167
		c0,17.769,14.404,32.173,32.173,32.173h1.638v0.041v79.324h0.999h21.986v-41.382c0-12.705,10.3-23.004,23.004-23.004h28.438
		c4.218,0,7.621-3.482,7.494-7.728C223.447,358.519,219.867,355.356,215.763,355.356z"/>
</g>
<g>
	<path id="SVGCleanerId_1_1_" style="fill:#EABD97;" d="M110.281,187.795c11.345,0,20.543-9.197,20.543-20.543V85.361
		c0-6.367,2.575-12.115,6.748-16.287c1.422-1.425,3.033-2.658,4.787-3.672c-3.384-1.953-7.307-3.076-11.495-3.076
		c-6.356,0-12.115,2.575-16.277,6.748c-4.172,4.172-6.748,9.921-6.748,16.287v102.434H110.281z"/>
</g>
<g>
	<path style="fill:#EABD97;" d="M177.105,166.557v-2.059c0-6.367,2.575-12.115,6.748-16.287c1.016-1.018,2.131-1.933,3.322-2.744
		c-3.085-1.536-6.561-2.404-10.241-2.404c-11.487,0-20.98,8.408-22.72,19.397c-0.059,0.672-0.095,1.352-0.095,2.039v16.67h8.373
		C170.562,181.168,177.105,174.626,177.105,166.557z"/>
	<path style="fill:#EABD97;" d="M200.075,187.349h8.373c8.069,0,14.612-6.542,14.612-14.612v-8.24
		c0-6.367,2.575-12.115,6.748-16.287c1.046-1.048,2.194-1.989,3.426-2.819c-3.049-1.492-6.475-2.33-10.096-2.33
		c-12.723,0-23.035,10.312-23.035,23.025v20.542h-0.028v0.722H200.075z"/>
	<path style="fill:#EABD97;" d="M269.485,143.061c-12.805,0-23.179,10.374-23.179,23.169v20.398h-0.093v0.721h8.373
		c8.069,0,14.612-6.542,14.612-14.612v-8.24c0-6.367,2.575-12.115,6.748-16.287c1.074-1.077,2.258-2.043,3.528-2.889
		C276.45,143.873,273.063,143.061,269.485,143.061z"/>
</g>
<g>
	<path id="SVGCleanerId_2_1_" style="fill:#7CA1D8;" d="M274.543,425.434V512H126.197v-86.566c0-9.086,7.366-16.452,16.452-16.452
		H254.97h3.121C267.177,408.982,274.543,416.348,274.543,425.434z"/>
</g>
<path style="fill:#F3D064;" d="M411.557,0c23.9,0,43.268,19.367,43.268,43.268s-19.367,43.268-43.268,43.268
	c-23.9,0-43.268-19.367-43.268-43.268S387.657,0,411.557,0z"/>
<path style="fill:#474755;" d="M474.398,165.674V422.56c0,6.15-4.996,11.147-11.147,11.147h-83.816
	c-6.15,0-11.147-4.996-11.147-11.147V165.674c0-6.15,4.996-11.147,11.147-11.147h83.816
	C469.402,154.527,474.398,159.524,474.398,165.674z"/>
<path style="fill:#404251;" d="M423.797,422.56V165.674c0-6.15,4.996-11.147,11.147-11.147h-55.507
	c-6.15,0-11.147,4.996-11.147,11.147V422.56c0,6.15,4.996,11.147,11.147,11.147h55.507
	C428.793,433.706,423.797,428.71,423.797,422.56z"/>
<path style="fill:#FF395E;" d="M474.398,165.674v41.393H368.29v-41.393c0-6.15,4.996-11.147,11.147-11.147h83.816
	C469.402,154.527,474.398,159.524,474.398,165.674z"/>
<path style="fill:#B12E65;" d="M423.797,165.674c0-6.15,4.996-11.147,11.147-11.147h-55.507c-4.083,0-7.647,2.209-9.589,5.489
	c-0.158,0.266-0.303,0.538-0.438,0.817c-0.505,1.043-0.852,2.172-1.011,3.364c-0.065,0.484-0.109,0.976-0.109,1.477v41.393h55.507
	L423.797,165.674L423.797,165.674z"/>
<path style="fill:#FF395E;" d="M399.195,258.06h-8.241c-4.268,0-7.726-3.458-7.726-7.726c0-4.268,3.458-7.726,7.726-7.726h8.241
	c4.268,0,7.726,3.458,7.726,7.726C406.922,254.602,403.463,258.06,399.195,258.06z"/>
<path style="fill:#7CA1D8;" d="M451.734,258.06h-30.905c-4.268,0-7.726-3.458-7.726-7.726c0-4.268,3.458-7.726,7.726-7.726h30.905
	c4.268,0,7.726,3.458,7.726,7.726C459.461,254.602,456.002,258.06,451.734,258.06z"/>
<path style="fill:#EAB430;" d="M451.734,292.056h-59.751c-4.268,0-7.726-3.458-7.726-7.726c0-4.268,3.458-7.726,7.726-7.726h59.751
	c4.268,0,7.726,3.458,7.726,7.726C459.461,288.598,456.002,292.056,451.734,292.056z"/>
<path style="fill:#C5D65C;" d="M451.734,326.052h-8.241c-4.268,0-7.726-3.458-7.726-7.726c0-4.268,3.458-7.726,7.726-7.726h8.241
	c4.268,0,7.726,3.458,7.726,7.726C459.461,322.594,456.002,326.052,451.734,326.052z"/>
<path style="fill:#7CA1D8;" d="M421.859,326.052h-30.905c-4.268,0-7.726-3.458-7.726-7.726c0-4.268,3.458-7.726,7.726-7.726h30.905
	c4.268,0,7.726,3.458,7.726,7.726C429.586,322.594,426.127,326.052,421.859,326.052z"/>
<path style="fill:#EAB430;" d="M451.734,360.048h-59.751c-4.268,0-7.726-3.458-7.726-7.726c0-4.268,3.458-7.726,7.726-7.726h59.751
	c4.268,0,7.726,3.458,7.726,7.726C459.461,356.59,456.002,360.048,451.734,360.048z"/>
<path style="fill:#C5D65C;" d="M399.195,394.044h-8.241c-4.268,0-7.726-3.458-7.726-7.726c0-4.268,3.458-7.726,7.726-7.726h8.241
	c4.268,0,7.726,3.458,7.726,7.726C406.922,390.586,403.463,394.044,399.195,394.044z"/>
<path style="fill:#FF395E;" d="M451.734,394.044h-30.905c-4.268,0-7.726-3.458-7.726-7.726c0-4.268,3.458-7.726,7.726-7.726h30.905
	c4.268,0,7.726,3.458,7.726,7.726C459.461,390.586,456.002,394.044,451.734,394.044z"/>
<g>
	<path style="fill:#EAB430;" d="M398.68,59.75c-1.977,0-3.955-0.754-5.464-2.262l-8.757-8.757c-3.017-3.018-3.017-7.91,0-10.927
		l8.241-8.241c3.018-3.016,7.91-3.016,10.927,0c3.017,3.018,3.017,7.91,0,10.927l-2.778,2.777l3.293,3.292
		c3.017,3.018,3.017,7.91,0,10.927C402.635,58.996,400.657,59.75,398.68,59.75z"/>
	<path style="fill:#EAB430;" d="M424.435,59.75c-1.977,0-3.955-0.754-5.464-2.262c-3.017-3.018-3.017-7.91,0-10.927l3.295-3.293
		l-2.778-2.777c-3.017-3.018-3.017-7.91,0-10.927c3.018-3.016,7.91-3.016,10.927,0l8.241,8.241c3.017,3.018,3.017,7.91,0,10.927
		l-8.757,8.757C428.389,58.996,426.412,59.75,424.435,59.75z"/>
</g>
<g>
</g>
<g>
</g>
<g>
</g>
<g>
</g>
<g>
</g>
<g>
</g>
<g>
</g>
<g>
</g>
<g>
</g>
<g>
</g>
<g>
</g>
<g>
</g>
<g>
</g>
<g>
</g>
<g>
</g>
</svg>
