<?xml version="1.0" encoding="iso-8859-1"?>
<!-- Generator: Adobe Illustrator 19.0.0, SVG Export Plug-In . SVG Version: 6.00 Build 0)  -->
<svg version="1.1" id="Capa_1" xmlns="http://www.w3.org/2000/svg" xmlns:xlink="http://www.w3.org/1999/xlink" x="0px" y="0px"
	 viewBox="0 0 512 512" style="enable-background:new 0 0 512 512;" xml:space="preserve">
<path style="fill:#F1F2F2;" d="M436.302,0H75.698c-6.243,0-11.311,5.068-11.311,11.311v195.776c0,6.243,5.068,11.311,11.311,11.311
	h186.483h151.437h22.685c6.243,0,11.311-5.068,11.311-11.311V11.311C447.614,5.068,442.545,0,436.302,0z"/>
<path style="fill:#E8E9E9;" d="M178.736,207.087V11.311C178.736,5.068,183.805,0,190.048,0H75.698
	c-6.243,0-11.311,5.068-11.311,11.311v195.776c0,6.243,5.068,11.311,11.311,11.311h114.35
	C183.805,218.398,178.736,213.33,178.736,207.087z"/>
<path style="fill:#DFDE48;" d="M413.618,49.449v190.068c0,7.685-6.222,13.907-13.907,13.907c-7.685,0-13.907-6.222-13.907-13.907
	v-37.087c0-7.685-6.222-13.907-13.907-13.907s-13.907,6.222-13.907,13.907V283.3v76.233l-95.807,1.03V283.3V148.861
	c0-7.685-6.222-13.907-13.907-13.907c-7.685,0-13.907,6.222-13.907,13.907v24.724c0,7.685-6.222,13.907-13.907,13.907
	c-7.685,0-13.907-6.222-13.907-13.907V49.449H413.618z"/>
<g>
	<path style="fill:#C5D65C;" d="M225.095,173.586V49.449h-18.543v124.137c0,7.685,6.222,13.907,13.907,13.907
		c3.569,0,6.811-1.353,9.272-3.559C226.891,181.388,225.095,177.702,225.095,173.586z"/>
	<path style="fill:#C5D65C;" d="M404.346,239.517v-37.087c0-7.685-6.222-13.907-13.907-13.907c-3.569,0-6.811,1.353-9.272,3.559
		c2.839,2.546,4.636,6.232,4.636,10.348v37.087c0,7.685,6.222,13.907,13.907,13.907c3.569,0,6.811-1.353,9.272-3.559
		C406.143,247.32,404.346,243.634,404.346,239.517z"/>
	<path style="fill:#C5D65C;" d="M262.181,360.563l18.543-0.199V283.3V148.861c0-7.685-6.222-13.907-13.907-13.907
		c-3.569,0-6.811,1.353-9.272,3.559c2.839,2.546,4.636,6.232,4.636,10.348V283.3V360.563z"/>
</g>
<path style="fill:#FF395E;" d="M447.614,11.311v38.137H64.386V11.311C64.386,5.068,69.455,0,75.698,0h360.605
	C442.545,0,447.614,5.068,447.614,11.311z"/>
<path style="fill:#B12E65;" d="M178.736,11.311C178.736,5.068,183.805,0,190.048,0H75.698c-1.17,0-2.299,0.178-3.363,0.509
	c-0.708,0.22-1.387,0.509-2.027,0.857C69.025,2.062,67.893,3,66.971,4.118c-0.922,1.117-1.635,2.415-2.076,3.831
	c-0.331,1.063-0.509,2.192-0.509,3.363v38.137h114.35V11.311z"/>
<circle style="fill:#842D65;" cx="93.231" cy="24.724" r="7.211"/>
<circle style="fill:#EAB430;" cx="123.622" cy="25.239" r="7.211"/>
<circle style="fill:#C5D65C;" cx="154.012" cy="25.755" r="7.211"/>
<circle style="fill:#817067;" cx="309.569" cy="487.276" r="6.696"/>
<path style="fill:#FF395E;" d="M176.676,90.656h-82.93c-4.267,0-7.726-3.458-7.726-7.726s3.459-7.726,7.726-7.726h82.93
	c4.267,0,7.726,3.458,7.726,7.726S180.943,90.656,176.676,90.656z"/>
<path style="fill:#C5D65C;" d="M109.714,124.652H93.746c-4.267,0-7.726-3.458-7.726-7.726c0-4.268,3.459-7.726,7.726-7.726h15.968
	c4.267,0,7.726,3.458,7.726,7.726C117.441,121.194,113.981,124.652,109.714,124.652z"/>
<path style="fill:#7CA1D8;" d="M176.676,124.652h-41.207c-4.267,0-7.726-3.458-7.726-7.726c0-4.268,3.459-7.726,7.726-7.726h41.207
	c4.267,0,7.726,3.458,7.726,7.726C184.402,121.194,180.943,124.652,176.676,124.652z"/>
<path style="fill:#FF395E;" d="M135.469,158.648H93.746c-4.267,0-7.726-3.458-7.726-7.726s3.459-7.726,7.726-7.726h41.722
	c4.267,0,7.726,3.458,7.726,7.726S139.736,158.648,135.469,158.648z"/>
<path style="fill:#7CA1D8;" d="M176.676,192.644h-82.93c-4.267,0-7.726-3.458-7.726-7.726c0-4.268,3.459-7.726,7.726-7.726h82.93
	c4.267,0,7.726,3.458,7.726,7.726C184.402,189.186,180.943,192.644,176.676,192.644z"/>
<g>
	<path style="fill:#C5D65C;" d="M176.676,159.163h-16.483c-4.267,0-7.726-3.458-7.726-7.726s3.459-7.726,7.726-7.726h16.483
		c4.267,0,7.726,3.458,7.726,7.726S180.943,159.163,176.676,159.163z"/>
	<path style="fill:#C5D65C;" d="M232.306,259.091v44.298c0,7.108-5.769,12.877-12.877,12.877c-7.108,0-12.877-5.769-12.877-12.877
		v-44.298c0-7.108,5.769-12.877,12.877-12.877c3.554,0,6.779,1.442,9.107,3.77C230.864,252.312,232.306,255.536,232.306,259.091z"/>
	<path style="fill:#C5D65C;" d="M218.913,302.877V258.58c0-4.87,2.708-9.108,6.698-11.297c-1.836-1.006-3.944-1.58-6.183-1.58
		c-7.108,0-12.877,5.769-12.877,12.877v44.298c0,7.108,5.769,12.877,12.877,12.877c2.24,0,4.345-0.575,6.181-1.582
		C221.621,311.983,218.913,307.745,218.913,302.877z"/>
</g>
<path style="fill:#E4E4DB;" d="M365.199,325.763v70.857H253.94v-70.857c0-1.832,1.484-3.316,3.316-3.316h29.268l11.713,20.604
	l9.344-20.604h54.302C363.715,322.447,365.199,323.931,365.199,325.763z"/>
<path style="fill:#C8DAD1;" d="M298.237,343.05l-11.713-20.604h-29.268c-1.832,0-3.316,1.485-3.316,3.316v70.857h44.424v-53.849
	L298.237,343.05z"/>
<path style="fill:#9B8580;" d="M365.199,386.318v27.743c0,15.968-12.949,28.917-28.917,28.917h-6.109v48.419
	c0,11.383-9.22,20.604-20.604,20.604s-20.604-9.22-20.604-20.604v-48.419h-6.109c-15.968,0-28.917-12.949-28.917-28.917v-27.743
	H365.199z"/>
<path style="fill:#817067;" d="M298.364,414.061v-27.743H253.94v27.743c0,15.968,12.949,28.917,28.917,28.917h6.109v48.419
	c0,11.383,9.22,20.604,20.604,20.604s20.604-9.22,20.604-20.604v-48.419h-2.892C311.314,442.978,298.364,430.028,298.364,414.061z"
	/>
<g>
</g>
<g>
</g>
<g>
</g>
<g>
</g>
<g>
</g>
<g>
</g>
<g>
</g>
<g>
</g>
<g>
</g>
<g>
</g>
<g>
</g>
<g>
</g>
<g>
</g>
<g>
</g>
<g>
</g>
</svg>
