<?xml version="1.0" encoding="iso-8859-1"?>
<!-- Generator: Adobe Illustrator 19.0.0, SVG Export Plug-In . SVG Version: 6.00 Build 0)  -->
<svg version="1.1" id="Capa_1" xmlns="http://www.w3.org/2000/svg" xmlns:xlink="http://www.w3.org/1999/xlink" x="0px" y="0px"
	 viewBox="0 0 512 512" style="enable-background:new 0 0 512 512;" xml:space="preserve">
<path style="fill:#717483;" d="M419.696,270.938h-64.798H155.042H94.365c-6.882,0-12.465,5.584-12.465,12.465v206.963h350.262
	V283.403C432.161,276.521,426.577,270.938,419.696,270.938z"/>
<path style="fill:#4C5574;" d="M231.563,270.938h-76.521H94.365c-6.882,0-12.465,5.584-12.465,12.465v191.511h137.198V283.403
	C219.098,276.521,224.681,270.938,231.563,270.938z"/>
<path style="fill:#8ACAEB;" d="M107.654,301.521v142.81c0,2.667,2.161,4.828,4.828,4.828h289.096c2.667,0,4.828-2.161,4.828-4.828
	v-142.81c0-2.667-2.161-4.828-4.828-4.828H112.482C109.815,296.692,107.654,298.853,107.654,301.521z"/>
<path style="fill:#8BB1EA;" d="M219.098,296.692H112.482c-2.667,0-4.828,2.162-4.828,4.828v142.81c0,2.666,2.162,4.828,4.828,4.828
	h106.615L219.098,296.692L219.098,296.692z"/>
<path style="fill:#DCDDDD;" d="M465.127,478.519v8.035c0,14.052-11.394,25.445-25.445,25.445H72.319
	c-14.052,0-25.445-11.394-25.445-25.445v-8.035c0-1.988,1.617-3.606,3.606-3.606h411.042
	C463.509,474.913,465.127,476.531,465.127,478.519z"/>
<path style="fill:#B9C1C1;" d="M170.763,493.457c-11.659,0-21.48-7.846-24.489-18.543H50.479c-1.988,0-3.606,1.617-3.606,3.606
	v8.035c0,14.052,11.394,25.445,25.445,25.445h367.363c11.659,0,21.48-7.846,24.489-18.543H170.763z"/>
<path style="fill:#EBDBAF;" d="M410.527,28.392v86.782c0,2.39-1.937,4.327-4.327,4.327h-51.303V27.815
	C354.897,12.455,367.352,0,382.712,0c0.258,0,0.525,0,0.783,0.01C398.649,0.422,410.527,13.238,410.527,28.392z"/>
<path style="fill:#FCF5DF;" d="M182.857,0c-15.36,0-27.815,12.455-27.815,27.815v421.344h199.855V119.501V27.815
	C354.897,12.455,367.352,0,382.712,0H182.857z"/>
<path style="fill:#EBDBAF;" d="M326.052,133.333v75.354c0,2.519-2.042,4.561-4.561,4.561H188.448c-2.519,0-4.561-2.042-4.561-4.561
	v-75.354c0-2.519,2.042-4.561,4.561-4.561h133.044C324.01,128.773,326.052,130.814,326.052,133.333z"/>
<g>
	<path style="fill:#DEC589;" d="M326.052,208.687v-4.427l-127.041-75.488h-10.565c-2.519,0-4.561,2.042-4.561,4.561v4.427
		l127.042,75.488h10.565C324.01,213.247,326.052,211.206,326.052,208.687z"/>
	<path style="fill:#DEC589;" d="M321.492,128.773h-10.565l-127.04,75.488v4.427c0,2.519,2.042,4.561,4.561,4.561h10.565
		l127.04-75.488v-4.427C326.052,130.814,324.01,128.773,321.492,128.773z"/>
	<path style="fill:#DEC589;" d="M326.052,50.685v19.161c0,2.957-2.4,5.357-5.357,5.357H189.244c-2.957,0-5.357-2.4-5.357-5.357
		V50.685c0-2.957,2.4-5.357,5.357-5.357h131.451C323.652,45.328,326.052,47.728,326.052,50.685z"/>
</g>
<g>
	<path style="fill:#EBDBAF;" d="M326.052,262.181H183.887c-4.267,0-7.726-3.458-7.726-7.726c0-4.268,3.459-7.726,7.726-7.726
		h142.165c4.267,0,7.726,3.458,7.726,7.726C333.779,258.723,330.319,262.181,326.052,262.181z"/>
	<path style="fill:#EBDBAF;" d="M326.052,298.237H183.887c-4.267,0-7.726-3.458-7.726-7.726c0-4.268,3.459-7.726,7.726-7.726
		h142.165c4.267,0,7.726,3.458,7.726,7.726C333.779,294.779,330.319,298.237,326.052,298.237z"/>
	<path style="fill:#EBDBAF;" d="M326.052,334.294H183.887c-4.267,0-7.726-3.458-7.726-7.726c0-4.268,3.459-7.726,7.726-7.726
		h142.165c4.267,0,7.726,3.458,7.726,7.726C333.779,330.835,330.319,334.294,326.052,334.294z"/>
	<path style="fill:#EBDBAF;" d="M326.052,370.35H183.887c-4.267,0-7.726-3.458-7.726-7.726c0-4.268,3.459-7.726,7.726-7.726h142.165
		c4.267,0,7.726,3.458,7.726,7.726C333.779,366.892,330.319,370.35,326.052,370.35z"/>
	<path style="fill:#EBDBAF;" d="M326.052,406.406H183.887c-4.267,0-7.726-3.458-7.726-7.726c0-4.268,3.459-7.726,7.726-7.726
		h142.165c4.267,0,7.726,3.458,7.726,7.726C333.779,402.948,330.319,406.406,326.052,406.406z"/>
</g>
<g>
</g>
<g>
</g>
<g>
</g>
<g>
</g>
<g>
</g>
<g>
</g>
<g>
</g>
<g>
</g>
<g>
</g>
<g>
</g>
<g>
</g>
<g>
</g>
<g>
</g>
<g>
</g>
<g>
</g>
</svg>
