<?xml version="1.0" encoding="iso-8859-1"?>
<!-- Generator: Adobe Illustrator 19.0.0, SVG Export Plug-In . SVG Version: 6.00 Build 0)  -->
<svg version="1.1" id="Capa_1" xmlns="http://www.w3.org/2000/svg" xmlns:xlink="http://www.w3.org/1999/xlink" x="0px" y="0px"
	 viewBox="0 0 512 512" style="enable-background:new 0 0 512 512;" xml:space="preserve">
<rect x="213.247" y="306.098" style="fill:#C9CACA;" width="86.535" height="81.127"/>
<rect x="213.247" y="306.098" style="fill:#BABAB9;" width="39.167" height="81.127"/>
<path style="fill:#717483;" d="M421.426,73.143H89.543c-7.922,0-14.34,6.418-14.34,14.34v113.402v118.471h49.717h296.507
	c7.922,0,14.34-6.418,14.34-14.34V87.483C435.767,79.561,429.349,73.143,421.426,73.143z"/>
<path style="fill:#4C5574;" d="M221.489,87.483c0-7.922,6.418-14.34,14.34-14.34H89.543c-7.922,0-14.34,6.418-14.34,14.34v113.402
	v118.471h49.717h96.569V200.885V87.483z"/>
<path style="fill:#F1F2F2;" d="M107.407,269.392v49.964h314.02c7.922,0,14.34-6.418,14.34-14.34v-35.624H107.407z"/>
<polygon style="fill:#E8E9E9;" points="107.407,269.392 107.407,319.356 124.92,319.356 221.489,319.356 221.489,269.392 "/>
<path style="fill:#77BEDB;" d="M406.196,98.897H104.774c-2.108,0-3.816,1.708-3.816,3.816v98.172v69.022h23.962h285.092V102.713
	C410.012,100.605,408.304,98.897,406.196,98.897z"/>
<path style="fill:#7CA1D8;" d="M221.489,102.713c0-2.108,1.708-3.816,3.816-3.816H104.774c-2.108,0-3.816,1.708-3.816,3.816v98.172
	v69.022h23.962h96.569v-69.022V102.713z"/>
<circle style="fill:#C9CACA;" cx="255.485" cy="294.632" r="9.787"/>
<polygon style="fill:#F1F2F2;" points="299.783,373.956 319.851,408.982 193.18,408.982 213.247,373.956 "/>
<polygon style="fill:#E8E9E9;" points="213.247,373.956 193.18,408.982 231.791,408.982 251.859,373.956 "/>
<path style="fill:#474755;" d="M363.654,153.919v115.988H149.376V153.919c0-8.767,7.108-15.875,15.875-15.875h182.527
	C356.546,138.044,363.654,145.152,363.654,153.919z"/>
<path style="fill:#404251;" d="M243.545,138.044h-78.294c-8.767,0-15.875,7.108-15.875,15.875v115.988h78.294V153.919
	C227.67,145.152,234.778,138.044,243.545,138.044z"/>
<path style="fill:#FF395E;" d="M347.779,138.044H165.251c-8.767,0-15.875,7.108-15.875,15.875v25.332h214.278v-25.332
	C363.654,145.152,356.546,138.044,347.779,138.044z"/>
<path style="fill:#B12E65;" d="M227.67,153.919c0-8.767,7.108-15.875,15.875-15.875h-78.294c-8.767,0-15.875,7.108-15.875,15.875
	v25.332h78.294V153.919z"/>
<circle style="fill:#842D65;" cx="174.101" cy="159.678" r="7.211"/>
<circle style="fill:#EAB430;" cx="194.189" cy="160.193" r="7.211"/>
<circle style="fill:#C5D65C;" cx="214.278" cy="160.708" r="7.211"/>
<path style="fill:#EAB430;" d="M219.944,222.519h-43.268c-4.268,0-7.726-3.459-7.726-7.726c0-4.267,3.458-7.726,7.726-7.726h43.268
	c4.268,0,7.726,3.459,7.726,7.726C227.67,219.06,224.212,222.519,219.944,222.519z"/>
<path style="fill:#7CA1D8;" d="M198.825,247.759h-21.634c-4.268,0-7.726-3.459-7.726-7.726c0-4.267,3.458-7.726,7.726-7.726h21.634
	c4.268,0,7.726,3.459,7.726,7.726C206.551,244.299,203.093,247.759,198.825,247.759z"/>
<path style="fill:#EAB430;" d="M261.666,247.759h-41.207c-4.268,0-7.726-3.459-7.726-7.726c0-4.267,3.458-7.726,7.726-7.726h41.207
	c4.268,0,7.726,3.459,7.726,7.726C269.392,244.299,265.934,247.759,261.666,247.759z"/>
<path style="fill:#FF395E;" d="M335.839,247.759H286.39c-4.268,0-7.726-3.459-7.726-7.726c0-4.267,3.458-7.726,7.726-7.726h49.449
	c4.268,0,7.726,3.459,7.726,7.726C343.565,244.299,340.107,247.759,335.839,247.759z"/>
<path style="fill:#7CA1D8;" d="M335.839,223.034h-90.656c-4.268,0-7.726-3.459-7.726-7.726c0-4.267,3.458-7.726,7.726-7.726h90.656
	c4.268,0,7.726,3.459,7.726,7.726C343.565,219.575,340.107,223.034,335.839,223.034z"/>
<path style="fill:#9B8580;" d="M512,414.452v18.935c0,3.018-2.452,5.47-5.47,5.47H5.47c-3.018,0-5.47-2.452-5.47-5.47v-18.935
	c0-3.018,2.452-5.47,5.47-5.47H506.53C509.548,408.982,512,411.434,512,414.452z"/>
<path style="fill:#817067;" d="M506.53,425.98H5.47c-3.018,0-5.47-2.452-5.47-5.47v12.877c0,3.018,2.452,5.47,5.47,5.47H506.53
	c3.018,0,5.47-2.452,5.47-5.47V420.51C512,423.528,509.548,425.98,506.53,425.98z"/>
<path style="fill:#FF395E;" d="M124.92,215.256v152.57c0,7.943-6.439,14.371-14.371,14.371H39.858
	c-7.932,0-14.371-6.428-14.371-14.371v-152.57c0-7.943,6.439-14.371,14.371-14.371h70.691
	C118.481,200.885,124.92,207.314,124.92,215.256z"/>
<path style="fill:#B12E65;" d="M72.521,367.826v-152.57c0-7.943,6.439-14.371,14.371-14.371H39.858
	c-7.932,0-14.371,6.428-14.371,14.371v152.57c0,7.943,6.439,14.371,14.371,14.371h47.034
	C78.959,382.197,72.521,375.769,72.521,367.826z"/>
<rect x="25.487" y="239.002" style="fill:#B4D9F4;" width="99.433" height="101.988"/>
<circle style="fill:#842D65;" cx="75.203" cy="360.563" r="6.696"/>
<g>
	<path style="fill:#7DBFEC;" d="M62.841,281.755H48.419c-4.268,0-7.726-3.459-7.726-7.726c0-4.267,3.458-7.726,7.726-7.726h14.423
		c4.268,0,7.726,3.459,7.726,7.726C70.567,278.295,67.109,281.755,62.841,281.755z"/>
	<path style="fill:#7DBFEC;" d="M103.018,308.539h-54.6c-4.268,0-7.726-3.459-7.726-7.726s3.458-7.726,7.726-7.726h54.6
		c4.268,0,7.726,3.459,7.726,7.726S107.286,308.539,103.018,308.539z"/>
	<path style="fill:#7DBFEC;" d="M103.018,281.755H85.505c-4.268,0-7.726-3.459-7.726-7.726c0-4.267,3.458-7.726,7.726-7.726h17.513
		c4.268,0,7.726,3.459,7.726,7.726C110.744,278.295,107.286,281.755,103.018,281.755z"/>
</g>
<g>
</g>
<g>
</g>
<g>
</g>
<g>
</g>
<g>
</g>
<g>
</g>
<g>
</g>
<g>
</g>
<g>
</g>
<g>
</g>
<g>
</g>
<g>
</g>
<g>
</g>
<g>
</g>
<g>
</g>
</svg>
