<?xml version="1.0" encoding="iso-8859-1"?>
<!-- Generator: Adobe Illustrator 19.0.0, SVG Export Plug-In . SVG Version: 6.00 Build 0)  -->
<svg version="1.1" id="Capa_1" xmlns="http://www.w3.org/2000/svg" xmlns:xlink="http://www.w3.org/1999/xlink" x="0px" y="0px"
	 viewBox="0 0 512 512" style="enable-background:new 0 0 512 512;" xml:space="preserve">
<path style="fill:#474755;" d="M436.529,0H75.471c-9.529,0-17.266,7.737-17.266,17.266v218.893c0,9.529,7.737,17.266,17.266,17.266
	H226.66h170.907h38.961c9.529,0,17.266-7.737,17.266-17.266V17.266C453.795,7.737,446.058,0,436.529,0z"/>
<path style="fill:#404251;" d="M210.524,236.159V17.266C210.524,7.737,218.26,0,227.789,0H75.471
	c-9.529,0-17.266,7.737-17.266,17.266v218.893c0,9.529,7.737,17.266,17.266,17.266H226.66h1.129
	C218.26,253.425,210.524,245.688,210.524,236.159z"/>
<path style="fill:#FF395E;" d="M453.795,17.266v34.243H58.205V17.266C58.205,7.737,65.942,0,75.471,0h361.058
	C446.058,0,453.795,7.737,453.795,17.266z"/>
<path style="fill:#B12E65;" d="M210.524,17.266C210.524,7.737,218.26,0,227.789,0H75.471c-9.529,0-17.266,7.737-17.266,17.266
	v34.243h152.318V17.266z"/>
<circle style="fill:#842D65;" cx="91.171" cy="25.755" r="9.787"/>
<circle style="fill:#EAB430;" cx="124.137" cy="25.755" r="9.787"/>
<circle style="fill:#C5D65C;" cx="157.103" cy="25.755" r="9.787"/>
<path style="fill:#E2B187;" d="M334.974,253.363l-0.68,0.062c-18.368,5.965-33.687,14.144-44.298,25.755l3.451,8.623l1.02,2.545
	c0.793,1.988,1.164,4.028,1.164,6.047c0,6.263-3.626,12.218-9.694,14.917c-8.963,3.976-19.378-0.793-22.221-10.178l-1.896-6.233
	l-6.243-21.314c-0.494-3.801,0.608-7.685,3.142-10.652c16.946-19.79,38.694-32.42,63.572-40.352
	c5.007-1.597,10.106,2.194,9.931,7.438C332.007,236.427,332.429,244.956,334.974,253.363z"/>
<path style="fill:#D69766;" d="M279.929,293.272l-1.896-6.233l-6.243-21.314c-0.495-3.801,0.608-7.685,3.142-10.652
	c9.771-11.411,21.148-20.43,33.791-27.552c-19.247,7.949-36.215,19.31-50.004,35.412c-2.534,2.967-3.637,6.851-3.142,10.652
	l6.243,21.314l1.896,6.233c2.843,9.385,13.258,14.155,22.221,10.178c3.219-1.432,5.743-3.786,7.411-6.612
	C287.27,303.867,281.858,299.636,279.929,293.272z"/>
<path style="fill:#F3D064;" d="M314.72,316.266c33.563,0,60.781,27.217,60.781,60.781s-27.217,60.781-60.781,60.781
	s-60.781-27.217-60.781-60.781S281.157,316.266,314.72,316.266z"/>
<path style="fill:#EDBD41;" d="M304.227,377.046c0-24.594,14.621-45.764,35.637-55.331c-7.666-3.49-16.174-5.45-25.144-5.45
	c-33.563,0-60.781,27.217-60.781,60.781s27.217,60.781,60.781,60.781c8.97,0,17.478-1.959,25.144-5.45
	C318.848,422.81,304.227,401.64,304.227,377.046z"/>
<path style="fill:#F0CEAC;" d="M389.924,51.509l-4.121,100.958c43.268,65.932,0,123.622,0,123.622v46.873
	c0,8.818-7.149,15.968-15.968,15.968c-4.409,0-8.406-1.793-11.291-4.677c-2.885-2.884-4.677-6.882-4.677-11.291v-44.813
	c-19.687-11.25-22.097-34.501-21.644-48.13c0.175-5.244-4.924-9.035-9.931-7.438c-24.879,7.932-46.626,20.562-63.572,40.352
	c-3.029,3.534-4.038,8.386-2.689,12.846l14.402,47.533c2.4,7.922-1.01,16.462-8.221,20.542c-2.781,1.576-5.769,2.308-8.705,2.308
	c-7.273,0-14.217-4.502-16.782-11.981l-18.162-53.096c-1.102-3.214-0.958-6.727,0.391-9.838l27.774-64.18l43.268-42.237
	l-12.208-113.32H389.924z"/>
<path style="fill:#E4AD80;" d="M263.026,334.18l-18.162-53.096c-1.102-3.214-0.958-6.727,0.391-9.838l27.774-64.18l43.268-42.237
	l-12.208-113.32h-26.301l12.208,113.32l-43.268,42.237l-27.774,64.18c-1.35,3.111-1.494,6.624-0.391,9.838l18.162,53.096
	c2.565,7.479,9.509,11.981,16.782,11.981c2.936,0,5.924-0.731,8.705-2.308c1.691-0.956,3.164-2.165,4.41-3.547
	C265.075,338.591,263.833,336.533,263.026,334.18z"/>
<g>
	<path style="fill:#F3D064;" d="M375.501,448.242v16.256c0,5.759-4.656,10.415-10.415,10.415H264.355
		c-5.759,0-10.415-4.656-10.415-10.415v-16.256c0-5.759,4.656-10.415,10.415-10.415h100.731
		C370.845,437.827,375.501,442.483,375.501,448.242z"/>
	<path style="fill:#F3D064;" d="M375.501,485.329v16.256c0,5.759-4.656,10.415-10.415,10.415H264.355
		c-5.759,0-10.415-4.656-10.415-10.415v-16.256c0-5.759,4.656-10.415,10.415-10.415h100.731
		C370.845,474.913,375.501,479.57,375.501,485.329z"/>
</g>
<g>
	<path style="fill:#EDBD41;" d="M300.88,455.34c-5.759,0-10.415-4.656-10.415-10.415v-7.098h-26.11
		c-5.759,0-10.415,4.656-10.415,10.415v16.256c0,5.759,4.656,10.415,10.415,10.415h100.731c5.759,0,10.415-4.656,10.415-10.415
		v-9.158H300.88z"/>
	<path style="fill:#EDBD41;" d="M300.88,492.427c-5.759,0-10.415-4.656-10.415-10.415v-7.098h-26.11
		c-5.759,0-10.415,4.656-10.415,10.415v16.256c0,5.759,4.656,10.415,10.415,10.415h100.731c5.759,0,10.415-4.656,10.415-10.415
		v-9.158H300.88z"/>
</g>
<path style="fill:#EAB430;" d="M326.617,369.835h-18.593v-8.241h25.239c4.268,0,7.726-3.458,7.726-7.726s-3.458-7.726-7.726-7.726
	h-10.817v-2.575c0-4.268-3.458-7.726-7.726-7.726c-4.268,0-7.726,3.458-7.726,7.726v2.575h-0.049
	c-7.925,0-14.373,6.448-14.373,14.373v10.401c0,7.925,6.448,14.373,14.373,14.373h18.593v7.211h-25.239
	c-4.268,0-7.726,3.458-7.726,7.726s3.458,7.726,7.726,7.726h6.696v2.575c0,4.268,3.458,7.726,7.726,7.726
	c4.268,0,7.726-3.458,7.726-7.726v-2.575h4.17c7.925,0,14.373-6.448,14.373-14.373v-9.371
	C340.99,376.283,334.542,369.835,326.617,369.835z"/>
<path style="fill:#7CA1D8;" d="M257.03,107.654h-33.996c-4.268,0-7.726-3.458-7.726-7.726c0-4.268,3.458-7.726,7.726-7.726h33.996
	c4.268,0,7.726,3.458,7.726,7.726C264.757,104.196,261.298,107.654,257.03,107.654z"/>
<path style="fill:#C5D65C;" d="M175.646,160.193h-67.992c-4.268,0-7.726-3.458-7.726-7.726s3.458-7.726,7.726-7.726h67.992
	c4.268,0,7.726,3.458,7.726,7.726S179.914,160.193,175.646,160.193z"/>
<path style="fill:#FF395E;" d="M125.167,194.189h-17.513c-4.268,0-7.726-3.458-7.726-7.726s3.458-7.726,7.726-7.726h17.513
	c4.268,0,7.726,3.458,7.726,7.726S129.435,194.189,125.167,194.189z"/>
<path style="fill:#C5D65C;" d="M199.34,222.004h-17.513c-4.268,0-7.726-3.458-7.726-7.726c0-4.268,3.458-7.726,7.726-7.726h17.513
	c4.268,0,7.726,3.458,7.726,7.726C207.066,218.546,203.608,222.004,199.34,222.004z"/>
<path style="fill:#7CA1D8;" d="M152.982,222.004h-45.328c-4.268,0-7.726-3.458-7.726-7.726c0-4.268,3.458-7.726,7.726-7.726h45.328
	c4.268,0,7.726,3.458,7.726,7.726C160.708,218.546,157.25,222.004,152.982,222.004z"/>
<path style="fill:#FF395E;" d="M257.03,160.193h-51.509c-4.268,0-7.726-3.458-7.726-7.726s3.458-7.726,7.726-7.726h51.509
	c4.268,0,7.726,3.458,7.726,7.726S261.298,160.193,257.03,160.193z"/>
<g>
	<path style="fill:#F3D064;" d="M107.139,127.742c-1.977,0-3.955-0.754-5.464-2.262l-19.573-19.573
		c-3.017-3.018-3.017-7.91,0-10.927l20.604-20.604c3.018-3.016,7.91-3.016,10.927,0c3.017,3.018,3.017,7.91,0,10.927l-15.141,15.14
		l14.11,14.109c3.017,3.018,3.017,7.91,0,10.927C111.094,126.988,109.116,127.742,107.139,127.742z"/>
	<path style="fill:#F3D064;" d="M166.889,127.742c-1.977,0-3.955-0.754-5.464-2.262c-3.017-3.018-3.017-7.91,0-10.927l14.111-14.11
		l-15.141-15.14c-3.017-3.018-3.017-7.91,0-10.927c3.018-3.016,7.91-3.016,10.927,0l20.604,20.604c3.017,3.018,3.017,7.91,0,10.927
		l-19.573,19.573C170.844,126.988,168.866,127.742,166.889,127.742z"/>
	<path style="fill:#F3D064;" d="M130.319,128.26c-0.81,0-1.634-0.129-2.445-0.399c-4.049-1.35-6.236-5.726-4.886-9.773
		l13.392-40.177c1.35-4.049,5.724-6.236,9.773-4.886c4.049,1.35,6.236,5.726,4.886,9.773l-13.392,40.177
		C136.568,126.213,133.554,128.26,130.319,128.26z"/>
	<path style="fill:#F3D064;" d="M229.215,194.189h-76.233c-4.268,0-7.726-3.458-7.726-7.726s3.458-7.726,7.726-7.726h76.233
		c4.268,0,7.726,3.458,7.726,7.726S233.483,194.189,229.215,194.189z"/>
</g>
<g>
</g>
<g>
</g>
<g>
</g>
<g>
</g>
<g>
</g>
<g>
</g>
<g>
</g>
<g>
</g>
<g>
</g>
<g>
</g>
<g>
</g>
<g>
</g>
<g>
</g>
<g>
</g>
<g>
</g>
</svg>
