<?xml version="1.0" encoding="iso-8859-1"?>
<!-- Generator: Adobe Illustrator 19.0.0, SVG Export Plug-In . SVG Version: 6.00 Build 0)  -->
<svg version="1.1" id="Capa_1" xmlns="http://www.w3.org/2000/svg" xmlns:xlink="http://www.w3.org/1999/xlink" x="0px" y="0px"
	 viewBox="0 0 512 512" style="enable-background:new 0 0 512 512;" xml:space="preserve">
<path style="fill:#FCF5DF;" d="M213.949,147.264v277.698c0,6.221-5.037,11.258-11.258,11.258H11.258
	C5.037,436.22,0,431.183,0,424.962V147.264c0-6.221,5.037-11.258,11.258-11.258H202.69
	C208.912,136.006,213.949,141.043,213.949,147.264z"/>
<path style="fill:#F3E7C6;" d="M106.027,424.962V147.264c0-6.221,5.037-11.258,11.258-11.258H11.258
	C5.037,136.006,0,141.043,0,147.264v277.698c0,6.221,5.037,11.258,11.258,11.258h106.027
	C111.064,436.22,106.027,431.183,106.027,424.962z"/>
<path style="fill:#FCF5DF;" d="M381.927,202.608v220.407c0,6.221-5.037,11.258-11.258,11.258H259.281
	c-6.221,0-11.258-5.037-11.258-11.258V202.608c0-6.221,5.037-11.258,11.258-11.258h111.388
	C376.89,191.35,381.927,196.387,381.927,202.608z"/>
<path style="fill:#F3E7C6;" d="M310.34,423.015V202.608c0-6.221,5.037-11.258,11.258-11.258h-62.317
	c-6.221,0-11.258,5.037-11.258,11.258v220.407c0,6.221,5.037,11.258,11.258,11.258h62.317
	C315.376,434.273,310.34,429.237,310.34,423.015z"/>
<path style="fill:#FCF5DF;" d="M512,276.771v148.5c0,6.211-5.047,11.258-11.258,11.258h-77.685c-6.221,0-11.258-5.047-11.258-11.258
	v-148.5c0-6.221,5.037-11.258,11.258-11.258h77.685C506.953,265.512,512,270.549,512,276.771z"/>
<path style="fill:#F3E7C6;" d="M463.413,425.271v-148.5c0-6.221,5.037-11.258,11.258-11.258h-51.615
	c-6.221,0-11.258,5.037-11.258,11.258v148.5c0,6.211,5.037,11.258,11.258,11.258h51.615
	C468.45,436.529,463.413,431.482,463.413,425.271z"/>
<g>
	<path style="fill:#C9CACA;" d="M297.152,132.325l-7.413,7.413V94.01c0-10.223-8.317-18.54-18.54-18.54H162.013
		c-10.223,0-18.54,8.317-18.54,18.54v21.117c0,4.267,3.459,7.725,7.725,7.725s7.725-3.458,7.725-7.725V94.01
		c0-1.703,1.385-3.089,3.089-3.089h109.186c1.704,0,3.089,1.386,3.089,3.089v45.728l-8.443-8.443c-3.017-3.016-7.909-3.016-10.925,0
		c-3.017,3.018-3.017,7.909,0,10.926l21.631,21.631c0.185,0.185,0.379,0.361,0.58,0.523c0.193,0.158,0.392,0.304,0.596,0.44
		c0.006,0.004,0.012,0.009,0.019,0.013c1.061,0.705,2.259,1.119,3.479,1.243c0.013,0.001,0.026,0.004,0.039,0.006
		c0.249,0.024,0.499,0.036,0.749,0.036c0,0,0,0,0.001,0s0,0,0.001,0c0.032,0,0.064-0.004,0.096-0.004
		c0.216-0.003,0.433-0.01,0.648-0.032c0.043-0.004,0.087-0.013,0.13-0.019c0.206-0.024,0.411-0.05,0.615-0.091
		c0.023-0.004,0.045-0.012,0.069-0.016c0.226-0.046,0.45-0.101,0.672-0.167c0.005-0.001,0.009-0.004,0.014-0.005
		c0.24-0.073,0.477-0.158,0.711-0.253h0.001c0.001,0,0.002-0.001,0.003-0.001c0.319-0.132,0.628-0.293,0.931-0.47
		c0.059-0.034,0.116-0.067,0.173-0.103c0.289-0.179,0.572-0.374,0.839-0.594c0.026-0.022,0.049-0.046,0.075-0.068
		c0.165-0.139,0.329-0.282,0.484-0.438l20.601-20.601c3.017-3.018,3.017-7.909,0-10.926
		C305.061,129.31,300.168,129.31,297.152,132.325z"/>
	<path style="fill:#C9CACA;" d="M478.032,211.637c-3.017-3.016-7.909-3.016-10.925,0l-7.413,7.413v-72.508
		c0-10.223-8.317-18.54-18.54-18.54H349.48c-10.223,0-18.54,8.317-18.54,18.54v21.117c0,4.267,3.459,7.725,7.725,7.725
		c4.266,0,7.725-3.458,7.725-7.725v-21.117c0-1.703,1.385-3.089,3.089-3.089h91.675c1.704,0,3.089,1.386,3.089,3.089v72.509
		l-8.443-8.443c-3.017-3.016-7.909-3.016-10.925,0c-3.017,3.018-3.017,7.909,0,10.926l21.631,21.631
		c0.185,0.185,0.379,0.361,0.58,0.523c0.193,0.158,0.392,0.304,0.596,0.44c0.006,0.004,0.012,0.009,0.019,0.013
		c1.061,0.705,2.259,1.119,3.479,1.243c0.013,0.001,0.026,0.004,0.039,0.006c0.249,0.024,0.499,0.036,0.749,0.036c0,0,0,0,0.001,0
		s0,0,0.001,0c0.032,0,0.064-0.004,0.096-0.004c0.216-0.003,0.433-0.01,0.648-0.032c0.043-0.004,0.087-0.013,0.13-0.019
		c0.206-0.024,0.411-0.05,0.615-0.091c0.023-0.004,0.045-0.012,0.069-0.016c0.226-0.046,0.45-0.101,0.672-0.167
		c0.005-0.001,0.009-0.004,0.014-0.005c0.24-0.073,0.477-0.158,0.711-0.253h0.001c0.001,0,0.002-0.001,0.003-0.001
		c0.319-0.132,0.628-0.293,0.931-0.47c0.059-0.034,0.116-0.067,0.173-0.103c0.289-0.179,0.572-0.374,0.839-0.594
		c0.026-0.022,0.049-0.046,0.075-0.068c0.165-0.139,0.329-0.282,0.484-0.438l20.601-20.601
		C481.049,219.546,481.049,214.655,478.032,211.637z"/>
</g>
<path style="fill:#C5D65C;" d="M187.25,164.795v71.649c0,2.4-1.947,4.347-4.347,4.347H30.911c-2.4,0-4.347-1.947-4.347-4.347
	v-71.649c0-2.4,1.947-4.347,4.347-4.347h151.992C185.303,160.449,187.25,162.395,187.25,164.795z"/>
<path style="fill:#F3D064;" d="M187.25,375.973v30.407c0,2.41-1.957,4.367-4.367,4.367H30.932c-2.41,0-4.367-1.957-4.367-4.367
	v-30.407c0-2.41,1.957-4.367,4.367-4.367h151.951C185.293,371.606,187.25,373.563,187.25,375.973z"/>
<path style="fill:#7CA1D8;" d="M116.178,270.941v69.486c0,2.997-2.431,5.428-5.428,5.428H31.993c-2.997,0-5.428-2.431-5.428-5.428
	v-69.486c0-2.997,2.431-5.428,5.428-5.428h78.757C113.747,265.512,116.178,267.943,116.178,270.941z"/>
<path style="fill:#FF395E;" d="M187.25,269.571v72.226c0,2.245-1.813,4.058-4.058,4.058h-39.265c-2.245,0-4.058-1.813-4.058-4.058
	v-72.226c0-2.245,1.813-4.058,4.058-4.058h39.265C185.437,265.512,187.25,267.325,187.25,269.571z"/>
<path style="fill:#7CA1D8;" d="M357.206,218.852v29.459c0,0.968-0.783,1.751-1.751,1.751h-80.961c-0.968,0-1.751-0.783-1.751-1.751
	v-29.459c0-0.968,0.783-1.751,1.751-1.751h80.961C356.423,217.101,357.206,217.884,357.206,218.852z"/>
<path style="fill:#FF395E;" d="M357.206,276.791v131.948c0,1.112-0.896,2.009-2.009,2.009h-80.446c-1.112,0-2.009-0.896-2.009-2.009
	V276.791c0-1.112,0.896-2.009,2.009-2.009h80.446C356.31,274.783,357.206,275.679,357.206,276.791z"/>
<path style="fill:#F3D064;" d="M486.991,293.045v42.788c0,0.979-0.803,1.782-1.782,1.782h-45.878c-0.979,0-1.782-0.803-1.782-1.782
	v-42.788c0-0.979,0.803-1.782,1.782-1.782h45.878C486.187,291.263,486.991,292.067,486.991,293.045z"/>
<path style="fill:#C5D65C;" d="M486.991,367.084v42.005c0,0.917-0.742,1.658-1.658,1.658h-46.125c-0.917,0-1.658-0.742-1.658-1.658
	v-42.005c0-0.917,0.742-1.658,1.658-1.658h46.125C486.249,365.426,486.991,366.167,486.991,367.084z"/>
<g>
</g>
<g>
</g>
<g>
</g>
<g>
</g>
<g>
</g>
<g>
</g>
<g>
</g>
<g>
</g>
<g>
</g>
<g>
</g>
<g>
</g>
<g>
</g>
<g>
</g>
<g>
</g>
<g>
</g>
</svg>
